<?xml version="1.0" standalone="no"?>
<!DOCTYPE svg PUBLIC "-//W3C//DTD SVG 20010904//EN"
 "http://www.w3.org/TR/2001/REC-SVG-20010904/DTD/svg10.dtd">
<svg version="1.0" xmlns="http://www.w3.org/2000/svg"
 width="128.000000pt" height="128.000000pt" viewBox="0 0 128.000000 128.000000"
 preserveAspectRatio="xMidYMid meet">

<g transform="translate(0.000000,128.000000) scale(0.100000,-0.100000)"
fill="#000000" stroke="none">
<path d="M482 1259 c-25 -12 -55 -39 -70 -62 l-27 -40 -3 -306 -3 -305 -36
-39 c-80 -89 -101 -217 -54 -325 47 -105 163 -182 277 -182 110 0 229 79 275
182 47 107 25 237 -55 326 l-36 39 0 294 c0 278 -1 295 -21 337 -44 89 -158
127 -247 81z m151 -79 c15 -12 31 -38 37 -58 6 -21 10 -159 10 -328 l0 -290
36 -35 c78 -73 95 -174 47 -270 -39 -76 -93 -112 -177 -117 -83 -5 -129 11
-180 62 -91 91 -88 235 8 325 l36 35 0 298 c0 320 4 349 51 382 33 23 100 21
132 -4z"/>
<path d="M537 974 c-4 -4 -7 -122 -7 -263 l0 -256 -41 -23 c-87 -50 -101 -162
-30 -234 119 -118 311 12 243 165 -14 32 -32 52 -61 69 l-41 23 -2 260 -3 260
-25 3 c-14 2 -29 0 -33 -4z m78 -619 c50 -49 20 -125 -50 -125 -72 0 -104 86
-49 129 35 28 69 26 99 -4z"/>
<path d="M834 1116 c-3 -8 -4 -23 -2 -33 3 -16 14 -18 87 -18 67 0 86 3 94 17
8 12 7 21 -2 32 -18 22 -169 23 -177 2z"/>
<path d="M834 966 c-3 -8 -4 -23 -2 -33 3 -16 14 -18 87 -18 67 0 86 3 94 17
8 12 7 21 -2 32 -18 22 -169 23 -177 2z"/>
<path d="M834 816 c-3 -8 -4 -23 -2 -33 3 -16 14 -18 87 -18 67 0 86 3 94 17
8 12 7 21 -2 32 -18 22 -169 23 -177 2z"/>
<path d="M834 666 c-3 -8 -4 -23 -2 -33 3 -16 14 -18 87 -18 67 0 86 3 94 17
8 12 7 21 -2 32 -18 22 -169 23 -177 2z"/>
</g>
</svg>
