<?xml version="1.0" standalone="no"?>
<!DOCTYPE svg PUBLIC "-//W3C//DTD SVG 20010904//EN"
 "http://www.w3.org/TR/2001/REC-SVG-20010904/DTD/svg10.dtd">
<svg version="1.0" xmlns="http://www.w3.org/2000/svg"
 width="128.000000pt" height="128.000000pt" viewBox="0 0 128.000000 128.000000"
 preserveAspectRatio="xMidYMid meet">

<g transform="translate(0.000000,128.000000) scale(0.100000,-0.100000)"
fill="#000000" stroke="none">
<path d="M64 1214 c-66 -32 -64 -19 -64 -574 0 -557 -2 -543 66 -575 48 -23
1100 -23 1148 0 68 32 66 18 66 575 0 557 2 543 -66 575 -48 22 -1104 22
-1150 -1z m1131 -574 l0 -505 -555 0 -555 0 -3 495 c-1 272 0 501 3 508 3 10
120 12 557 10 l553 -3 0 -505z"/>
<path d="M166 1064 c-24 -23 -24 -525 0 -548 14 -14 70 -16 474 -16 404 0 460
2 474 16 24 23 24 525 0 548 -14 14 -70 16 -474 16 -404 0 -460 -2 -474 -16z
m884 -274 l0 -210 -410 0 -410 0 0 210 0 210 410 0 410 0 0 -210z"/>
<path d="M575 928 c-3 -8 -4 -72 -3 -144 l3 -129 30 0 30 0 0 140 0 140 -28 3
c-16 2 -29 -2 -32 -10z"/>
<path d="M304 917 c-2 -7 -3 -69 -2 -138 l3 -124 25 0 c22 0 25 5 28 42 3 39
5 42 40 48 86 15 119 91 66 154 -24 29 -31 31 -90 31 -44 0 -66 -4 -70 -13z
m115 -61 c18 -22 2 -46 -30 -46 -26 0 -29 4 -29 30 0 25 4 30 24 30 13 0 29
-6 35 -14z"/>
<path d="M744 917 c-2 -7 -3 -69 -2 -138 l3 -124 50 -3 c88 -5 149 51 149 138
0 55 -21 92 -67 120 -37 23 -125 28 -133 7z m110 -68 c20 -16 26 -29 26 -59 0
-30 -6 -43 -26 -59 -47 -37 -54 -29 -54 59 0 88 7 96 54 59z"/>
<path d="M166 414 c-12 -11 -16 -36 -16 -99 0 -113 2 -115 140 -115 138 0 140
2 140 115 0 113 -2 115 -140 115 -85 0 -112 -3 -124 -16z m184 -99 l0 -35 -60
0 -60 0 0 35 0 35 60 0 60 0 0 -35z"/>
<path d="M516 414 c-12 -11 -16 -36 -16 -99 0 -113 2 -115 140 -115 138 0 140
2 140 115 0 113 -2 115 -140 115 -85 0 -112 -3 -124 -16z m184 -99 l0 -35 -60
0 -60 0 0 35 0 35 60 0 60 0 0 -35z"/>
<path d="M866 414 c-12 -11 -16 -36 -16 -99 0 -113 2 -115 140 -115 138 0 140
2 140 115 0 113 -2 115 -140 115 -85 0 -112 -3 -124 -16z m184 -99 l0 -35 -60
0 -60 0 0 35 0 35 60 0 60 0 0 -35z"/>
</g>
</svg>
